<svg xmlns="http://www.w3.org/2000/svg" xmlns:xlink="http://www.w3.org/1999/xlink" contentStyleType="text/css" data-diagram-type="DESCRIPTION" height="241px" preserveAspectRatio="none" style="width:483px;height:241px;background:#FFFFFF;" version="1.1" viewBox="0 0 483 241" width="483px" zoomAndPan="magnify"><defs/><g><!--entity gateway--><g class="entity" data-entity="gateway" data-source-line="3" data-uid="ent0002" id="entity_gateway"><rect fill="#F1F1F1" height="36.2969" rx="2.5" ry="2.5" style="stroke:#181818;stroke-width:0.5;" width="108.4434" x="97.43" y="7"/><text fill="#000000" font-family="sans-serif" font-size="14" lengthAdjust="spacing" textLength="88.4434" x="107.43" y="29.9951">API Gateway</text></g><!--entity student--><g class="entity" data-entity="student" data-source-line="4" data-uid="ent0003" id="entity_student"><rect fill="#F1F1F1" height="36.2969" rx="2.5" ry="2.5" style="stroke:#181818;stroke-width:0.5;" width="131.3027" x="7" y="199.59"/><text fill="#000000" font-family="sans-serif" font-size="14" lengthAdjust="spacing" textLength="111.3027" x="17" y="222.5851">Student Service</text></g><!--entity exam--><g class="entity" data-entity="exam" data-source-line="5" data-uid="ent0004" id="entity_exam"><rect fill="#F1F1F1" height="36.2969" rx="2.5" ry="2.5" style="stroke:#181818;stroke-width:0.5;" width="115.5391" x="172.88" y="199.59"/><text fill="#000000" font-family="sans-serif" font-size="14" lengthAdjust="spacing" textLength="95.5391" x="182.88" y="222.5851">Exam Service</text></g><!--entity translation--><g class="entity" data-entity="translation" data-source-line="6" data-uid="ent0005" id="entity_translation"><rect fill="#F1F1F1" height="36.2969" rx="2.5" ry="2.5" style="stroke:#181818;stroke-width:0.5;" width="154.5313" x="323.39" y="199.59"/><text fill="#000000" font-family="sans-serif" font-size="14" lengthAdjust="spacing" textLength="134.5313" x="333.39" y="222.5851">Translation Service</text></g><!--entity management--><g class="entity" data-entity="management" data-source-line="7" data-uid="ent0006" id="entity_management"><rect fill="#F1F1F1" height="36.2969" rx="2.5" ry="2.5" style="stroke:#181818;stroke-width:0.5;" width="212.2129" x="125.54" y="103.3"/><text fill="#000000" font-family="sans-serif" font-size="14" lengthAdjust="spacing" textLength="192.2129" x="135.54" y="126.2951">Exam Management Service</text></g><!--link gateway to student--><g class="link" data-entity-1="gateway" data-entity-2="student" data-source-line="9" data-uid="lnk7" id="link_gateway_student"><path d="M140.19,43.65 C130.55,58.93 116.91,81.93 107.65,103.3 C93.4,136.21 83.7943,170.9664 78.1843,193.5864" fill="none" id="gateway-to-student" style="stroke:#181818;stroke-width:1;"/><polygon fill="#181818" points="76.74,199.41,82.7888,191.6375,77.9436,194.557,75.0241,189.7118,76.74,199.41" style="stroke:#181818;stroke-width:1;"/></g><!--link gateway to management--><g class="link" data-entity-1="gateway" data-entity-2="management" data-source-line="10" data-uid="lnk8" id="link_gateway_management"><path d="M166.32,43.44 C180.67,60.35 198.5193,81.384 212.9193,98.364" fill="none" id="gateway-to-management" style="stroke:#181818;stroke-width:1;"/><polygon fill="#181818" points="216.8,102.94,214.0296,93.4888,213.5661,99.1266,207.9282,98.6631,216.8,102.94" style="stroke:#181818;stroke-width:1;"/></g><!--link management to exam--><g class="link" data-entity-1="management" data-entity-2="exam" data-source-line="12" data-uid="lnk9" id="link_management_exam"><path d="M231.47,139.74 C231.29,156.65 231.0836,176.2603 230.9036,193.2403" fill="none" id="management-to-exam" style="stroke:#181818;stroke-width:1;"/><polygon fill="#181818" points="230.84,199.24,234.9352,190.2829,230.893,194.2403,226.9356,190.1981,230.84,199.24" style="stroke:#181818;stroke-width:1;"/></g><!--link management to translation--><g class="link" data-entity-1="management" data-entity-2="translation" data-source-line="13" data-uid="lnk10" id="link_management_translation"><path d="M263.04,139.96 C293.3,156.84 333.6007,179.326 363.9007,196.236" fill="none" id="management-to-translation" style="stroke:#181818;stroke-width:1;"/><polygon fill="#181818" points="369.14,199.16,363.2304,191.2812,364.7739,196.7233,359.3317,198.2669,369.14,199.16" style="stroke:#181818;stroke-width:1;"/></g><!--link management to student--><g class="link" data-entity-1="management" data-entity-2="student" data-source-line="14" data-uid="lnk11" id="link_management_student"><path d="M202.12,139.96 C173.65,156.84 135.9601,179.1884 107.4601,196.0984" fill="none" id="management-to-student" style="stroke:#181818;stroke-width:1;"/><polygon fill="#181818" points="102.3,199.16,112.0812,198.0076,106.6001,196.6086,107.999,191.1275,102.3,199.16" style="stroke:#181818;stroke-width:1;"/></g><!--SRC=[POvD2i8m48NtESNGVQyWk11n8GZr0aCSIZ6Pb6JywUsjQKd7k7jyxsFcfVl08qRqO8CV0nDB9vCZY6G5kNTaJ6cWsLzES4IX5quDO89-oLhfv77xXexYSx2KjRGmhHtUyq_jq0oqS8t8oQ4CWNyysVZVlJCozkJhzxvWOzR5qBQxCaipxMuvLtbXnVIQgbglVm00]--></g></svg>