<svg xmlns="http://www.w3.org/2000/svg" xmlns:xlink="http://www.w3.org/1999/xlink" contentStyleType="text/css" data-diagram-type="SEQUENCE" height="452px" preserveAspectRatio="none" style="width:678px;height:452px;background:#FFFFFF;" version="1.1" viewBox="0 0 678 452" width="678px" zoomAndPan="magnify"><title>Register for an exam</title><defs/><g><text fill="#000000" font-family="sans-serif" font-size="14" font-weight="bold" lengthAdjust="spacing" textLength="165.7305" x="255.6252" y="27.9951">Register for an exam</text><g><title>Student</title><rect fill="#000000" fill-opacity="0.00000" height="253.0625" width="8" x="31.5557" y="118.5938"/><line style="stroke:#181818;stroke-width:0.5;stroke-dasharray:5.0,5.0;" x1="35" x2="35" y1="118.5938" y2="371.6563"/></g><g><title>Gateway</title><rect fill="#000000" fill-opacity="0.00000" height="253.0625" width="8" x="145.8828" y="118.5938"/><line style="stroke:#181818;stroke-width:0.5;stroke-dasharray:5.0,5.0;" x1="148.9604" x2="148.9604" y1="118.5938" y2="371.6563"/></g><g><title>Exam Management</title><rect fill="#000000" fill-opacity="0.00000" height="253.0625" width="8" x="420.939" y="118.5938"/><line style="stroke:#181818;stroke-width:0.5;stroke-dasharray:5.0,5.0;" x1="424.9282" x2="424.9282" y1="118.5938" y2="371.6563"/></g><g><title>Exam</title><rect fill="#000000" fill-opacity="0.00000" height="253.0625" width="8" x="563.1958" y="118.5938"/><line style="stroke:#181818;stroke-width:0.5;stroke-dasharray:5.0,5.0;" x1="566.522" x2="566.522" y1="118.5938" y2="371.6563"/></g><g><title>Student</title><rect fill="#000000" fill-opacity="0.00000" height="253.0625" width="8" x="634.4253" y="118.5938"/><line style="stroke:#181818;stroke-width:0.5;stroke-dasharray:5.0,5.0;" x1="637.8696" x2="637.8696" y1="118.5938" y2="371.6563"/></g><g class="participant participant-head" data-participant="s"><text fill="#000000" font-family="sans-serif" font-size="14" lengthAdjust="spacing" textLength="55.1113" x="5" y="115.292">Student</text><ellipse cx="35.5557" cy="50.7969" fill="#E2E2F0" rx="8" ry="8" style="stroke:#181818;stroke-width:0.5;"/><path d="M35.5557,58.7969 L35.5557,85.7969 M22.5557,66.7969 L48.5557,66.7969 M35.5557,85.7969 L22.5557,100.7969 M35.5557,85.7969 L48.5557,100.7969" fill="none" style="stroke:#181818;stroke-width:0.5;"/></g><g class="participant participant-tail" data-participant="s"><text fill="#000000" font-family="sans-serif" font-size="14" lengthAdjust="spacing" textLength="55.1113" x="5" y="383.6514">Student</text><ellipse cx="35.5557" cy="395.4531" fill="#E2E2F0" rx="8" ry="8" style="stroke:#181818;stroke-width:0.5;"/><path d="M35.5557,403.4531 L35.5557,430.4531 M22.5557,411.4531 L48.5557,411.4531 M35.5557,430.4531 L22.5557,445.4531 M35.5557,430.4531 L48.5557,445.4531" fill="none" style="stroke:#181818;stroke-width:0.5;"/></g><g class="participant participant-head" data-participant="gateway"><rect fill="#E2E2F0" height="30.2969" rx="2.5" ry="2.5" style="stroke:#181818;stroke-width:0.5;" width="75.8447" x="111.9604" y="87.2969"/><text fill="#000000" font-family="sans-serif" font-size="14" lengthAdjust="spacing" textLength="61.8447" x="118.9604" y="107.292">Gateway</text></g><g class="participant participant-tail" data-participant="gateway"><rect fill="#E2E2F0" height="30.2969" rx="2.5" ry="2.5" style="stroke:#181818;stroke-width:0.5;" width="75.8447" x="111.9604" y="370.6563"/><text fill="#000000" font-family="sans-serif" font-size="14" lengthAdjust="spacing" textLength="61.8447" x="118.9604" y="390.6514">Gateway</text></g><g class="participant participant-head" data-participant="management"><rect fill="#E2E2F0" height="30.2969" rx="2.5" ry="2.5" style="stroke:#181818;stroke-width:0.5;" width="150.0215" x="349.9282" y="87.2969"/><text fill="#000000" font-family="sans-serif" font-size="14" lengthAdjust="spacing" textLength="136.0215" x="356.9282" y="107.292">Exam Management</text></g><g class="participant participant-tail" data-participant="management"><rect fill="#E2E2F0" height="30.2969" rx="2.5" ry="2.5" style="stroke:#181818;stroke-width:0.5;" width="150.0215" x="349.9282" y="370.6563"/><text fill="#000000" font-family="sans-serif" font-size="14" lengthAdjust="spacing" textLength="136.0215" x="356.9282" y="390.6514">Exam Management</text></g><g class="participant participant-head" data-participant="exam"><rect fill="#E2E2F0" height="30.2969" rx="2.5" ry="2.5" style="stroke:#181818;stroke-width:0.5;" width="53.3477" x="540.522" y="87.2969"/><text fill="#000000" font-family="sans-serif" font-size="14" lengthAdjust="spacing" textLength="39.3477" x="547.522" y="107.292">Exam</text></g><g class="participant participant-tail" data-participant="exam"><rect fill="#E2E2F0" height="30.2969" rx="2.5" ry="2.5" style="stroke:#181818;stroke-width:0.5;" width="53.3477" x="540.522" y="370.6563"/><text fill="#000000" font-family="sans-serif" font-size="14" lengthAdjust="spacing" textLength="39.3477" x="547.522" y="390.6514">Exam</text></g><g class="participant participant-head" data-participant="student"><rect fill="#E2E2F0" height="30.2969" rx="2.5" ry="2.5" style="stroke:#181818;stroke-width:0.5;" width="69.1113" x="603.8696" y="87.2969"/><text fill="#000000" font-family="sans-serif" font-size="14" lengthAdjust="spacing" textLength="55.1113" x="610.8696" y="107.292">Student</text></g><g class="participant participant-tail" data-participant="student"><rect fill="#E2E2F0" height="30.2969" rx="2.5" ry="2.5" style="stroke:#181818;stroke-width:0.5;" width="69.1113" x="603.8696" y="370.6563"/><text fill="#000000" font-family="sans-serif" font-size="14" lengthAdjust="spacing" textLength="55.1113" x="610.8696" y="390.6514">Student</text></g><g class="message" data-participant-1="s" data-participant-2="gateway"><polygon fill="#181818" points="137.8828,145.7266,147.8828,149.7266,137.8828,153.7266,141.8828,149.7266" style="stroke:#181818;stroke-width:1;"/><line style="stroke:#181818;stroke-width:1;stroke-dasharray:2.0,2.0;" x1="35.5557" x2="143.8828" y1="149.7266" y2="149.7266"/><text fill="#000000" font-family="sans-serif" font-size="13" lengthAdjust="spacing" textLength="54.1074" x="42.5557" y="144.6606">Register</text></g><g class="message" data-participant-1="gateway" data-participant-2="management"><polygon fill="#181818" points="412.939,174.8594,422.939,178.8594,412.939,182.8594,416.939,178.8594" style="stroke:#181818;stroke-width:1;"/><line style="stroke:#181818;stroke-width:1;stroke-dasharray:2.0,2.0;" x1="149.8828" x2="418.939" y1="178.8594" y2="178.8594"/><text fill="#000000" font-family="sans-serif" font-size="13" lengthAdjust="spacing" textLength="251.0562" x="156.8828" y="173.7935">CreateRegistration(examId, studentId)</text></g><g class="message" data-participant-1="management" data-participant-2="exam"><polygon fill="#181818" points="555.1958,203.9922,565.1958,207.9922,555.1958,211.9922,559.1958,207.9922" style="stroke:#181818;stroke-width:1;"/><line style="stroke:#181818;stroke-width:1;stroke-dasharray:2.0,2.0;" x1="424.939" x2="561.1958" y1="207.9922" y2="207.9922"/><text fill="#000000" font-family="sans-serif" font-size="13" lengthAdjust="spacing" textLength="118.2568" x="431.939" y="202.9263">GetExam(examId)</text></g><g class="message" data-participant-1="exam" data-participant-2="management"><polygon fill="#181818" points="435.939,233.125,425.939,237.125,435.939,241.125,431.939,237.125" style="stroke:#181818;stroke-width:1;"/><line style="stroke:#181818;stroke-width:1;stroke-dasharray:2.0,2.0;" x1="429.939" x2="566.1958" y1="237.125" y2="237.125"/><text fill="#000000" font-family="sans-serif" font-size="13" lengthAdjust="spacing" textLength="47.7026" x="441.939" y="232.0591">200 OK</text></g><g class="message" data-participant-1="management" data-participant-2="student"><polygon fill="#181818" points="626.4253,262.2578,636.4253,266.2578,626.4253,270.2578,630.4253,266.2578" style="stroke:#181818;stroke-width:1;"/><line style="stroke:#181818;stroke-width:1;stroke-dasharray:2.0,2.0;" x1="424.939" x2="632.4253" y1="266.2578" y2="266.2578"/><text fill="#000000" font-family="sans-serif" font-size="13" lengthAdjust="spacing" textLength="146.269" x="431.939" y="261.1919">GetStudent(studentId)</text></g><g class="message" data-participant-1="student" data-participant-2="management"><polygon fill="#181818" points="435.939,291.3906,425.939,295.3906,435.939,299.3906,431.939,295.3906" style="stroke:#181818;stroke-width:1;"/><line style="stroke:#181818;stroke-width:1;stroke-dasharray:2.0,2.0;" x1="429.939" x2="637.4253" y1="295.3906" y2="295.3906"/><text fill="#000000" font-family="sans-serif" font-size="13" lengthAdjust="spacing" textLength="47.7026" x="441.939" y="290.3247">200 OK</text></g><g class="message" data-participant-1="management" data-participant-2="gateway"><polygon fill="#181818" points="160.8828,320.5234,150.8828,324.5234,160.8828,328.5234,156.8828,324.5234" style="stroke:#181818;stroke-width:1;"/><line style="stroke:#181818;stroke-width:1;stroke-dasharray:2.0,2.0;" x1="154.8828" x2="423.939" y1="324.5234" y2="324.5234"/><text fill="#000000" font-family="sans-serif" font-size="13" lengthAdjust="spacing" textLength="90.3271" x="166.8828" y="319.4575">201 CREATED</text></g><g class="message" data-participant-1="gateway" data-participant-2="s"><polygon fill="#181818" points="46.5557,349.6563,36.5557,353.6563,46.5557,357.6563,42.5557,353.6563" style="stroke:#181818;stroke-width:1;"/><line style="stroke:#181818;stroke-width:1;stroke-dasharray:2.0,2.0;" x1="40.5557" x2="148.8828" y1="353.6563" y2="353.6563"/><text fill="#000000" font-family="sans-serif" font-size="13" lengthAdjust="spacing" textLength="90.3271" x="52.5557" y="348.5903">201 CREATED</text></g><!--SRC=[ZO_B2i9034NtynMXgnOKQfSk1Acb516X-WEXZMN0FfY9g7_lJD_LZRiav-RUX2NV2L8gf6PISAiLO0Nqmb88pDYq5txaL36W1YqQL2mpsQ0PnCZqnBS5HLSki1CP4pXXXGMLni2nmd9i5zfMQd2REmVpyAuKGiDwlHiYOJiUBuQHnLEGKOIA3Efq2bdMbMkJadmrk2Qv9sOhri4gp6vCRA_h5ppHZdyI0j-7y_7ReZVlNFfNt5dYmF-qcruE_0s4QRI_HeV5rth9FW00]--></g></svg>