<svg xmlns="http://www.w3.org/2000/svg" xmlns:xlink="http://www.w3.org/1999/xlink" contentStyleType="text/css" data-diagram-type="DESCRIPTION" height="262px" preserveAspectRatio="none" style="width:349px;height:262px;background:#FFFFFF;" version="1.1" viewBox="0 0 349 262" width="349px" zoomAndPan="magnify"><defs/><g><!--cluster Exam Management--><g class="cluster" data-entity="Exam Management" data-source-line="4" data-uid="ent0003" id="cluster_Exam Management"><path d="M107.61,6 L259.1647,6 A3.75,3.75 0 0 1 261.6647,8.5 L268.6647,28.2969 L339.51,28.2969 A2.5,2.5 0 0 1 342.01,30.7969 L342.01,252.5 A2.5,2.5 0 0 1 339.51,255 L107.61,255 A2.5,2.5 0 0 1 105.11,252.5 L105.11,8.5 A2.5,2.5 0 0 1 107.61,6" fill="none" style="stroke:#000000;stroke-width:1.5;"/><line style="stroke:#000000;stroke-width:1.5;" x1="105.11" x2="268.6647" y1="28.2969" y2="28.2969"/><text fill="#000000" font-family="sans-serif" font-size="14" font-weight="bold" lengthAdjust="spacing" textLength="150.5547" x="109.11" y="20.9951">Exam Management</text></g><!--entity UC1--><g class="entity" data-entity="UC1" data-source-line="5" data-uid="ent0004" id="entity_UC1"><ellipse cx="223.5611" cy="217.9962" fill="#F1F1F1" rx="93.9311" ry="21.1862" style="stroke:#181818;stroke-width:0.5;"/><text fill="#000000" font-family="sans-serif" font-size="14" lengthAdjust="spacing" textLength="162.5859" x="142.2682" y="222.6447">Unregister for an exam</text></g><!--entity UC2--><g class="entity" data-entity="UC2" data-source-line="6" data-uid="ent0005" id="entity_UC2"><ellipse cx="223.5581" cy="141.9956" fill="#F1F1F1" rx="87.2281" ry="19.8456" style="stroke:#181818;stroke-width:0.5;"/><text fill="#000000" font-family="sans-serif" font-size="14" lengthAdjust="spacing" textLength="147.4375" x="149.8394" y="146.6441">Register for an exam</text></g><!--entity UC3--><g class="entity" data-entity="UC3" data-source-line="7" data-uid="ent0006" id="entity_UC3"><ellipse cx="223.5616" cy="64.0003" fill="#F1F1F1" rx="102.4516" ry="22.8903" style="stroke:#181818;stroke-width:0.5;"/><text fill="#000000" font-family="sans-serif" font-size="14" lengthAdjust="spacing" textLength="181.4463" x="132.8384" y="68.6488">View all registered exams</text></g><!--entity s--><g class="entity" data-entity="s" data-source-line="2" data-uid="ent0002" id="entity_s"><ellipse cx="33.5557" cy="112.35" fill="#F1F1F1" rx="8" ry="8" style="stroke:#181818;stroke-width:0.5;"/><path d="M33.5557,120.35 L33.5557,147.35 M20.5557,128.35 L46.5557,128.35 M33.5557,147.35 L20.5557,162.35 M33.5557,147.35 L46.5557,162.35" fill="none" style="stroke:#181818;stroke-width:0.5;"/><text fill="#000000" font-family="sans-serif" font-size="14" lengthAdjust="spacing" textLength="55.1113" x="6" y="176.8451">Student</text></g><!--link s to UC1--><g class="link" data-entity-1="s" data-entity-2="UC1" data-source-line="10" data-uid="lnk7" id="link_s_UC1"><path d="M61.53,159.82 C72.3,166.43 85,173.62 97.11,179 C117.23,187.93 134.2535,193.9444 154.8335,200.1244" fill="none" id="s-to-UC1" style="stroke:#181818;stroke-width:1;"/><polygon fill="#181818" points="160.58,201.85,153.1107,195.4306,155.7913,200.412,150.8098,203.0926,160.58,201.85" style="stroke:#181818;stroke-width:1;"/></g><!--link s to UC2--><g class="link" data-entity-1="s" data-entity-2="UC2" data-source-line="11" data-uid="lnk8" id="link_s_UC2"><path d="M61.49,142 C81.19,142 103.09,142 130.14,142" fill="none" id="s-to-UC2" style="stroke:#181818;stroke-width:1;"/><polygon fill="#181818" points="136.14,142,127.14,138,131.14,142,127.14,146,136.14,142" style="stroke:#181818;stroke-width:1;"/></g><!--link s to UC3--><g class="link" data-entity-1="s" data-entity-2="UC3" data-source-line="12" data-uid="lnk9" id="link_s_UC3"><path d="M61.57,124.27 C72.35,117.67 85.04,110.46 97.11,105 C116.53,96.21 132.6754,90.2286 152.6454,83.8386" fill="none" id="s-to-UC3" style="stroke:#181818;stroke-width:1;"/><polygon fill="#181818" points="158.36,82.01,148.5691,80.9431,153.5979,83.5338,151.0072,88.5625,158.36,82.01" style="stroke:#181818;stroke-width:1;"/></g><!--SRC=[TSsn2i9040JGVhzYI9_2fBSHInibzilT9Xuc5xdTe23-ksSmaiPkbddCzj8QR4GAtSNWGn9dOOp4piQ4aqrUee4LIdHZT-LEKEmVFE30CHz3hWiy2PXK76jkcvYa2sgIqEODZf3iYyz8izkivV6_gzRk7EGExdiim-9dgrzSquj8KPRR-SEIgb-gtm00]--></g></svg>