<svg xmlns="http://www.w3.org/2000/svg" xmlns:xlink="http://www.w3.org/1999/xlink" contentStyleType="text/css" data-diagram-type="DESCRIPTION" height="263px" preserveAspectRatio="none" style="width:402px;height:263px;background:#FFFFFF;" version="1.1" viewBox="0 0 402 263" width="402px" zoomAndPan="magnify"><defs/><g><!--cluster Pr?fungsverwaltung--><g class="cluster" data-entity="Pr&#252;fungsverwaltung" data-source-line="4" data-uid="ent0003" id="cluster_Pr&#252;fungsverwaltung"><path d="M107.61,6 L269.4733,6 A3.75,3.75 0 0 1 271.9733,8.5 L278.9733,28.2969 L392.51,28.2969 A2.5,2.5 0 0 1 395.01,30.7969 L395.01,253.5 A2.5,2.5 0 0 1 392.51,256 L107.61,256 A2.5,2.5 0 0 1 105.11,253.5 L105.11,8.5 A2.5,2.5 0 0 1 107.61,6" fill="none" style="stroke:#000000;stroke-width:1.5;"/><line style="stroke:#000000;stroke-width:1.5;" x1="105.11" x2="278.9733" y1="28.2969" y2="28.2969"/><text fill="#000000" font-family="sans-serif" font-size="14" font-weight="bold" lengthAdjust="spacing" textLength="160.8633" x="109.11" y="20.9951">Pr&#252;fungsverwaltung</text></g><!--entity UC1--><g class="entity" data-entity="UC1" data-source-line="5" data-uid="ent0004" id="entity_UC1"><ellipse cx="250.0565" cy="222.0033" fill="#F1F1F1" rx="79.3165" ry="18.2633" style="stroke:#181818;stroke-width:0.5;"/><text fill="#000000" font-family="sans-serif" font-size="14" lengthAdjust="spacing" textLength="129.0625" x="185.5252" y="226.6517">Pr&#252;fung abmelden</text></g><!--entity UC2--><g class="entity" data-entity="UC2" data-source-line="6" data-uid="ent0005" id="entity_UC2"><ellipse cx="250.0607" cy="150.0021" fill="#F1F1F1" rx="79.3107" ry="18.2621" style="stroke:#181818;stroke-width:0.5;"/><text fill="#000000" font-family="sans-serif" font-size="14" lengthAdjust="spacing" textLength="129.0488" x="185.5363" y="154.6506">Pr&#252;fung anmelden</text></g><!--entity UC3--><g class="entity" data-entity="UC3" data-source-line="7" data-uid="ent0006" id="entity_UC3"><ellipse cx="250.0594" cy="68.9999" fill="#F1F1F1" rx="128.9494" ry="28.1899" style="stroke:#181818;stroke-width:0.5;"/><text fill="#000000" font-family="sans-serif" font-size="14" lengthAdjust="spacing" textLength="238.3555" x="130.8817" y="73.6483">Angemeldete Pr&#252;fungen einsehen</text></g><!--entity s--><g class="entity" data-entity="s" data-source-line="2" data-uid="ent0002" id="entity_s"><ellipse cx="33.5557" cy="120.35" fill="#F1F1F1" rx="8" ry="8" style="stroke:#181818;stroke-width:0.5;"/><path d="M33.5557,128.35 L33.5557,155.35 M20.5557,136.35 L46.5557,136.35 M33.5557,155.35 L20.5557,170.35 M33.5557,155.35 L46.5557,170.35" fill="none" style="stroke:#181818;stroke-width:0.5;"/><text fill="#000000" font-family="sans-serif" font-size="14" lengthAdjust="spacing" textLength="55.1113" x="6" y="184.8451">Student</text></g><!--link s to UC1--><g class="link" data-entity-1="s" data-entity-2="UC1" data-source-line="10" data-uid="lnk7" id="link_s_UC1"><path d="M61.41,167.74 C72.16,174.22 84.88,181.15 97.11,186 C125.21,197.14 151.7871,204.1715 179.4671,209.9615" fill="none" id="s-to-UC1" style="stroke:#181818;stroke-width:1;"/><polygon fill="#181818" points="185.34,211.19,177.3496,205.432,180.4459,210.1663,175.7117,213.2626,185.34,211.19" style="stroke:#181818;stroke-width:1;"/></g><!--link s to UC2--><g class="link" data-entity-1="s" data-entity-2="UC2" data-source-line="11" data-uid="lnk8" id="link_s_UC2"><path d="M61.29,150 C88.58,150 126.26,150 164.63,150" fill="none" id="s-to-UC2" style="stroke:#181818;stroke-width:1;"/><polygon fill="#181818" points="170.63,150,161.63,146,165.63,150,161.63,154,170.63,150" style="stroke:#181818;stroke-width:1;"/></g><!--link s to UC3--><g class="link" data-entity-1="s" data-entity-2="UC3" data-source-line="12" data-uid="lnk9" id="link_s_UC3"><path d="M61.55,132.61 C72.32,126.17 85.02,119.18 97.11,114 C118.35,104.89 136.2593,98.6315 158.4693,92.0215" fill="none" id="s-to-UC3" style="stroke:#181818;stroke-width:1;"/><polygon fill="#181818" points="164.22,90.31,154.4529,89.0434,159.4277,91.7362,156.7349,96.7111,164.22,90.31" style="stroke:#181818;stroke-width:1;"/></g><!--SRC=[ROr12i9040Jl-uecznnCxeBu0K5ymBYPR1RZH7OcyI3-p9iVCmOI5RmLT7LtoxN1EgGO6aCL4tkBdJZorYNihQzO3AHGvoxaJnGOk_HyrBq47JXTgRKHSND0h-n96TaiW8vdRiU5xBrmsAx-I_8Z5T_IHW9FgNrkMS1Hb9kbKhgxSueyNqydCnKBbIy0]--></g></svg>