<svg xmlns="http://www.w3.org/2000/svg" xmlns:xlink="http://www.w3.org/1999/xlink" contentStyleType="text/css" data-diagram-type="SEQUENCE" height="483px" preserveAspectRatio="none" style="width:658px;height:483px;background:#FFFFFF;" version="1.1" viewBox="0 0 658 483" width="658px" zoomAndPan="magnify"><title>View registered exams</title><defs/><g><text fill="#000000" font-family="sans-serif" font-size="14" font-weight="bold" lengthAdjust="spacing" textLength="180.8652" x="240.2644" y="27.9951">View registered exams</text><rect fill="none" height="133.6641" style="stroke:#000000;stroke-width:1.5;" width="366.2813" x="286.1128" y="193.8594"/><g><title>Student</title><rect fill="#000000" fill-opacity="0.00000" height="284.1953" width="8" x="31.5557" y="118.5938"/><line style="stroke:#181818;stroke-width:0.5;stroke-dasharray:5.0,5.0;" x1="35" x2="35" y1="118.5938" y2="402.7891"/></g><g><title>Gateway</title><rect fill="#000000" fill-opacity="0.00000" height="284.1953" width="8" x="204.7192" y="118.5938"/><line style="stroke:#181818;stroke-width:0.5;stroke-dasharray:5.0,5.0;" x1="207.7969" x2="207.7969" y1="118.5938" y2="402.7891"/></g><g><title>Exam Management</title><rect fill="#000000" fill-opacity="0.00000" height="284.1953" width="8" x="367.1235" y="118.5938"/><line style="stroke:#181818;stroke-width:0.5;stroke-dasharray:5.0,5.0;" x1="371.1128" x2="371.1128" y1="118.5938" y2="402.7891"/></g><g><title>Exam</title><rect fill="#000000" fill-opacity="0.00000" height="284.1953" width="8" x="509.3804" y="118.5938"/><line style="stroke:#181818;stroke-width:0.5;stroke-dasharray:5.0,5.0;" x1="512.7065" x2="512.7065" y1="118.5938" y2="402.7891"/></g><g><title>Translation</title><rect fill="#000000" fill-opacity="0.00000" height="284.1953" width="8" x="592.2241" y="118.5938"/><line style="stroke:#181818;stroke-width:0.5;stroke-dasharray:5.0,5.0;" x1="596.0542" x2="596.0542" y1="118.5938" y2="402.7891"/></g><g class="participant participant-head" data-participant="s"><text fill="#000000" font-family="sans-serif" font-size="14" lengthAdjust="spacing" textLength="55.1113" x="5" y="115.292">Student</text><ellipse cx="35.5557" cy="50.7969" fill="#E2E2F0" rx="8" ry="8" style="stroke:#181818;stroke-width:0.5;"/><path d="M35.5557,58.7969 L35.5557,85.7969 M22.5557,66.7969 L48.5557,66.7969 M35.5557,85.7969 L22.5557,100.7969 M35.5557,85.7969 L48.5557,100.7969" fill="none" style="stroke:#181818;stroke-width:0.5;"/></g><g class="participant participant-tail" data-participant="s"><text fill="#000000" font-family="sans-serif" font-size="14" lengthAdjust="spacing" textLength="55.1113" x="5" y="414.7842">Student</text><ellipse cx="35.5557" cy="426.5859" fill="#E2E2F0" rx="8" ry="8" style="stroke:#181818;stroke-width:0.5;"/><path d="M35.5557,434.5859 L35.5557,461.5859 M22.5557,442.5859 L48.5557,442.5859 M35.5557,461.5859 L22.5557,476.5859 M35.5557,461.5859 L48.5557,476.5859" fill="none" style="stroke:#181818;stroke-width:0.5;"/></g><g class="participant participant-head" data-participant="gateway"><rect fill="#E2E2F0" height="30.2969" rx="2.5" ry="2.5" style="stroke:#181818;stroke-width:0.5;" width="75.8447" x="170.7969" y="87.2969"/><text fill="#000000" font-family="sans-serif" font-size="14" lengthAdjust="spacing" textLength="61.8447" x="177.7969" y="107.292">Gateway</text></g><g class="participant participant-tail" data-participant="gateway"><rect fill="#E2E2F0" height="30.2969" rx="2.5" ry="2.5" style="stroke:#181818;stroke-width:0.5;" width="75.8447" x="170.7969" y="401.7891"/><text fill="#000000" font-family="sans-serif" font-size="14" lengthAdjust="spacing" textLength="61.8447" x="177.7969" y="421.7842">Gateway</text></g><g class="participant participant-head" data-participant="management"><rect fill="#E2E2F0" height="30.2969" rx="2.5" ry="2.5" style="stroke:#181818;stroke-width:0.5;" width="150.0215" x="296.1128" y="87.2969"/><text fill="#000000" font-family="sans-serif" font-size="14" lengthAdjust="spacing" textLength="136.0215" x="303.1128" y="107.292">Exam Management</text></g><g class="participant participant-tail" data-participant="management"><rect fill="#E2E2F0" height="30.2969" rx="2.5" ry="2.5" style="stroke:#181818;stroke-width:0.5;" width="150.0215" x="296.1128" y="401.7891"/><text fill="#000000" font-family="sans-serif" font-size="14" lengthAdjust="spacing" textLength="136.0215" x="303.1128" y="421.7842">Exam Management</text></g><g class="participant participant-head" data-participant="exam"><rect fill="#E2E2F0" height="30.2969" rx="2.5" ry="2.5" style="stroke:#181818;stroke-width:0.5;" width="53.3477" x="486.7065" y="87.2969"/><text fill="#000000" font-family="sans-serif" font-size="14" lengthAdjust="spacing" textLength="39.3477" x="493.7065" y="107.292">Exam</text></g><g class="participant participant-tail" data-participant="exam"><rect fill="#E2E2F0" height="30.2969" rx="2.5" ry="2.5" style="stroke:#181818;stroke-width:0.5;" width="53.3477" x="486.7065" y="401.7891"/><text fill="#000000" font-family="sans-serif" font-size="14" lengthAdjust="spacing" textLength="39.3477" x="493.7065" y="421.7842">Exam</text></g><g class="participant participant-head" data-participant="translation"><rect fill="#E2E2F0" height="30.2969" rx="2.5" ry="2.5" style="stroke:#181818;stroke-width:0.5;" width="92.3398" x="550.0542" y="87.2969"/><text fill="#000000" font-family="sans-serif" font-size="14" lengthAdjust="spacing" textLength="78.3398" x="557.0542" y="107.292">Translation</text></g><g class="participant participant-tail" data-participant="translation"><rect fill="#E2E2F0" height="30.2969" rx="2.5" ry="2.5" style="stroke:#181818;stroke-width:0.5;" width="92.3398" x="550.0542" y="401.7891"/><text fill="#000000" font-family="sans-serif" font-size="14" lengthAdjust="spacing" textLength="78.3398" x="557.0542" y="421.7842">Translation</text></g><g class="message" data-participant-1="s" data-participant-2="gateway"><polygon fill="#181818" points="196.7192,145.7266,206.7192,149.7266,196.7192,153.7266,200.7192,149.7266" style="stroke:#181818;stroke-width:1;"/><line style="stroke:#181818;stroke-width:1;stroke-dasharray:2.0,2.0;" x1="35.5557" x2="202.7192" y1="149.7266" y2="149.7266"/><text fill="#000000" font-family="sans-serif" font-size="13" lengthAdjust="spacing" textLength="149.1636" x="42.5557" y="144.6606">View registered exams</text></g><g class="message" data-participant-1="gateway" data-participant-2="management"><polygon fill="#181818" points="359.1235,174.8594,369.1235,178.8594,359.1235,182.8594,363.1235,178.8594" style="stroke:#181818;stroke-width:1;"/><line style="stroke:#181818;stroke-width:1;stroke-dasharray:2.0,2.0;" x1="208.7192" x2="365.1235" y1="178.8594" y2="178.8594"/><text fill="#000000" font-family="sans-serif" font-size="13" lengthAdjust="spacing" textLength="138.4043" x="215.7192" y="173.7935">GetExams(studentId)</text></g><path d="M286.1128,193.8594 L362.7368,193.8594 L362.7368,200.9922 L352.7368,210.9922 L286.1128,210.9922 L286.1128,193.8594" fill="#EEEEEE" style="stroke:#000000;stroke-width:1.5;"/><rect fill="none" height="133.6641" style="stroke:#000000;stroke-width:1.5;" width="366.2813" x="286.1128" y="193.8594"/><text fill="#000000" font-family="sans-serif" font-size="13" font-weight="bold" lengthAdjust="spacing" textLength="31.624" x="301.1128" y="206.9263">loop</text><text fill="#000000" font-family="sans-serif" font-size="11" font-weight="bold" lengthAdjust="spacing" textLength="166.5415" x="377.7368" y="206.0698">[for each registered exam]</text><g class="message" data-participant-1="management" data-participant-2="exam"><polygon fill="#181818" points="501.3804,228.125,511.3804,232.125,501.3804,236.125,505.3804,232.125" style="stroke:#181818;stroke-width:1;"/><line style="stroke:#181818;stroke-width:1;stroke-dasharray:2.0,2.0;" x1="371.1235" x2="507.3804" y1="232.125" y2="232.125"/><text fill="#000000" font-family="sans-serif" font-size="13" lengthAdjust="spacing" textLength="118.2568" x="378.1235" y="227.0591">GetExam(examId)</text></g><g class="message" data-participant-1="exam" data-participant-2="management"><polygon fill="#181818" points="382.1235,257.2578,372.1235,261.2578,382.1235,265.2578,378.1235,261.2578" style="stroke:#181818;stroke-width:1;"/><line style="stroke:#181818;stroke-width:1;stroke-dasharray:2.0,2.0;" x1="376.1235" x2="512.3804" y1="261.2578" y2="261.2578"/><text fill="#000000" font-family="sans-serif" font-size="13" lengthAdjust="spacing" textLength="80.7295" x="388.1235" y="256.1919">Exam object</text></g><g class="message" data-participant-1="management" data-participant-2="translation"><polygon fill="#181818" points="584.2241,286.3906,594.2241,290.3906,584.2241,294.3906,588.2241,290.3906" style="stroke:#181818;stroke-width:1;"/><line style="stroke:#181818;stroke-width:1;stroke-dasharray:2.0,2.0;" x1="371.1235" x2="590.2241" y1="290.3906" y2="290.3906"/><text fill="#000000" font-family="sans-serif" font-size="13" lengthAdjust="spacing" textLength="154.4639" x="378.1235" y="285.3247">GetTranslation(examId)</text></g><g class="message" data-participant-1="translation" data-participant-2="management"><polygon fill="#181818" points="382.1235,315.5234,372.1235,319.5234,382.1235,323.5234,378.1235,319.5234" style="stroke:#181818;stroke-width:1;"/><line style="stroke:#181818;stroke-width:1;stroke-dasharray:2.0,2.0;" x1="376.1235" x2="595.2241" y1="319.5234" y2="319.5234"/><text fill="#000000" font-family="sans-serif" font-size="13" lengthAdjust="spacing" textLength="145.6025" x="388.1235" y="314.4575">Translated description</text></g><g class="message" data-participant-1="management" data-participant-2="gateway"><polygon fill="#181818" points="219.7192,351.6563,209.7192,355.6563,219.7192,359.6563,215.7192,355.6563" style="stroke:#181818;stroke-width:1;"/><line style="stroke:#181818;stroke-width:1;stroke-dasharray:2.0,2.0;" x1="213.7192" x2="370.1235" y1="355.6563" y2="355.6563"/><text fill="#000000" font-family="sans-serif" font-size="13" lengthAdjust="spacing" textLength="86.6138" x="225.7192" y="350.5903">List of exams</text></g><g class="message" data-participant-1="gateway" data-participant-2="s"><polygon fill="#181818" points="46.5557,380.7891,36.5557,384.7891,46.5557,388.7891,42.5557,384.7891" style="stroke:#181818;stroke-width:1;"/><line style="stroke:#181818;stroke-width:1;stroke-dasharray:2.0,2.0;" x1="40.5557" x2="207.7192" y1="384.7891" y2="384.7891"/><text fill="#000000" font-family="sans-serif" font-size="13" lengthAdjust="spacing" textLength="86.6138" x="52.5557" y="379.7231">List of exams</text></g><!--SRC=[TP3DJiGm38JlVWfhJyjXNu03DxH2WXDexoRnbg0sgMAZXRV7RbNwiqjETMRoJSUQj6Ky9RvWvIQ9SkM8_4sT053GKl5Llo9dHH8KwAbg2gadkpYIyeL-N6Z6pvMyUpGAlb2cXZi3xDpO_Oqhxs0rsODNmbkbB2rfAjbrdKS0mSFXOOh6-tzQJBfxvtIp7razLlOo5doATm1jAJsUhJLJ-DZ20Eqi68xq-ncszz51xXoagzYXQdd_vA2tU8k68tQnWHLzQRmAcHxPZqUMK5C_h8np1DW4pljxjgvOpZVs9blr5m00]--></g></svg>